<svg version="1.2" xmlns="http://www.w3.org/2000/svg" viewBox="0 0 192 192" width="64" height="64">
	<title>333172-PAQRLO-751-ai</title>
	<defs>
		<clipPath clipPathUnits="userSpaceOnUse" id="cp1">
			<path d="m-404-404h1000v1000h-1000z"/>
		</clipPath>
		<linearGradient id="g1" x1="24.9" y1="55" x2="167.5" y2="55" gradientUnits="userSpaceOnUse">
			<stop offset="0" stop-color="#ffd000"/>
			<stop offset=".3" stop-color="#d5102a"/>
			<stop offset=".65" stop-color="#a2248f"/>
			<stop offset="1" stop-color="#1ba0de"/>
		</linearGradient>
	</defs>
	<style>
		.s0 { fill: url(#g1) } 
		.s1 { fill: #3f3f3f } 
	</style>
	<g id="BACKGROUND">
		<g id="&lt;Clip Group&gt;" clip-path="url(#cp1)">
		</g>
	</g>
	<g id="OBJECTS">
		<g id="&lt;Group&gt;">
		</g>
		<g id="&lt;Group&gt;">
		</g>
		<g id="&lt;Group&gt;">
		</g>
		<g id="&lt;Group&gt;">
		</g>
		<path id="&lt;Path&gt;" class="s0" d="m28.1 73.8c6.9-13.4 20-20.9 32.7-18.3 9.4 2 16.1 10.7 23.2 17.8 6.9 7.1 31.6 32.9 33.8 35.3 5 5.5 11.4 11.4 18.5 11.4 10.9 0 19.8-11 19.8-24.5 0-8.3-3.9-16.3-9.4-20.8-3.5-2.8-6.9-3.7-10.3-3.4-5.9 0.7-11.6 5-16.4 10q-6 6.1-12 12.3l-10-10.1q5-5.1 10-10.2c7.1-7.1 13.8-15.8 23.2-17.8 12.7-2.6 25.8 4.9 32.7 18.3 3.3 6.4 5.1 14 5.1 21.7 0 20.5-12.9 38.2-29.3 40.3-9.5 1.2-19.2-3.5-26.2-11.5-7.9-9.2-16.6-17.4-25-26q-0.5-0.5-1.1-1.1-7.7-8-15.4-15.9c-4.8-5-10.5-9.3-16.4-10-3.4-0.3-6.8 0.6-10.3 3.4-5.5 4.5-9.4 12.5-9.4 20.8 0 11.9 7.6 22.4 17 24.3 4.9 1 9.9-0.5 13.8-4.3 5.8-5.7 11.5-11.8 17.3-17.7q1.6 1.7 3.2 3.3 3.4 3.5 6.8 7-7.1 7.3-14.1 14.5c-10.7 10.8-22.8 17.3-36.3 10.5-11.4-5.6-19.5-19.1-20.5-34.3q-0.1-1.6-0.1-3.3c0-7.7 1.8-15.3 5.1-21.7z"/>
		<g id="&lt;Group&gt;">
		</g>
		<g id="&lt;Group&gt;">
		</g>
	</g>
	<g id="DESIGNED BY FREEPIK">
		<g id="&lt;Group&gt;">
			<g id="&lt;Group&gt;">
			</g>
			<g id="&lt;Group&gt;">
				<g id="&lt;Group&gt;">
					<path id="&lt;Path&gt;" class="s1" d="m194.9 554.7q-0.7 0-1.3 0.5-0.5 0.5-0.5 1.3 0 0.8 0.6 1.3 0.5 0.5 1.2 0.5 0.7 0 1.3-0.5 0.5-0.5 0.5-1.3 0-0.8-0.5-1.3-0.6-0.5-1.3-0.5z"/>
				</g>
				<g id="&lt;Group&gt;">
					<path id="&lt;Path&gt;" class="s1" d="m87.8 554.9q0 0 0 0 0 0 0 0z"/>
					<path id="&lt;Path&gt;" class="s1" d="m87.7 554.7q-0.1-0.1-0.1-0.1 0 0.1 0.1 0.1z"/>
					<path id="&lt;Path&gt;" class="s1" d="m87 553.1q0.3 0.7 0.6 1.4-0.4-0.7-0.6-1.4z"/>
				</g>
			</g>
		</g>
	</g>
</svg>